# xmcd
# 
# Track frame offsets:
#     150
#     18711
#     35611
#     55169
#     68574
#     90461
#     104111
#     118453
#     134503
#     150999
#     165155
#     186912
#     206956
#     229571
#     246876
#     263596
#     282376
#     297394
#     312863
#     327138
# 
# Disc length: 4589
# 
# Revision: 2
# Processed by: cddbd v1.5.2PL0 Copyright (c) Steve Scherf et al.
# Submitted via: fre:ac v1.0.31
# 
DISCID=2511eb14
DTITLE=The Jayhawks - Music From The North Country: The Jayhawks Anthology
DYEAR=2009
DGENRE=Rock/Pop
TTITLE0=Two Angels
TTITLE1=Ain't No End
TTITLE2=Waiting For The Sun
TTITLE3=Martin's Song
TTITLE4=Clouds
TTITLE5=Settled Down Like Rain
TTITLE6=Blue
TTITLE7=I'd Run Away
TTITLE8=Over My Shoulder
TTITLE9=Miss Williams' Guitar
TTITLE10=Trouble
TTITLE11=Big Star
TTITLE12=The Man Who Loved Life
TTITLE13=Smile
TTITLE14=I'm Gonna Make You Love Me
TTITLE15=What Led Me To This Town
TTITLE16=Tailspin
TTITLE17=All The Right Reasons
TTITLE18=Save It For A Rainy Day
TTITLE19=Angelyne
EXTD=
EXTT0=
EXTT1=
EXTT2=
EXTT3=
EXTT4=
EXTT5=
EXTT6=
EXTT7=
EXTT8=
EXTT9=
EXTT10=
EXTT11=
EXTT12=
EXTT13=
EXTT14=
EXTT15=
EXTT16=
EXTT17=
EXTT18=
EXTT19=
PLAYORDER=
